<svg width="18" height="10" viewBox="0 0 18 10" fill="none" xmlns="http://www.w3.org/2000/svg">
<path d="M0.352268 0.344838C0.240604 0.45294 0.152011 0.581361 0.0915625 0.722744C0.0311146 0.864127 -3.92783e-07 1.0157 -3.86092e-07 1.16877C-3.79401e-07 1.32184 0.0311146 1.47341 0.0915626 1.61479C0.152011 1.75618 0.240604 1.8846 0.352268 1.9927L8.3236 9.72926C8.41235 9.81557 8.51776 9.88404 8.6338 9.93076C8.74984 9.97748 8.87424 10.0015 8.99987 10.0015C9.1255 10.0015 9.2499 9.97748 9.36594 9.93076C9.48199 9.88404 9.5874 9.81557 9.67614 9.72926L17.6475 1.9927C18.1175 1.53651 18.1175 0.801025 17.6475 0.344837C17.1774 -0.11135 16.4196 -0.11135 15.9496 0.344837L8.99508 7.08524L2.04054 0.33553C1.5801 -0.111347 0.812706 -0.111349 0.352268 0.344838Z" fill="black" fill-opacity="0.3"/>
</svg>
