<svg width="26" height="26" viewBox="0 0 26 26" fill="none" xmlns="http://www.w3.org/2000/svg">
<path d="M20.6082 18.3917C20.1008 17.9057 19.607 17.4058 19.1273 16.8924C18.7243 16.4829 18.4816 16.185 18.4816 16.185L15.4483 14.7366C16.6627 13.3593 17.3329 11.5862 17.3333 9.75C17.3333 5.56941 13.9316 2.16666 9.74996 2.16666C5.56829 2.16666 2.16663 5.56941 2.16663 9.75C2.16663 13.9306 5.56829 17.3333 9.74996 17.3333C11.6599 17.3333 13.4008 16.6183 14.7365 15.4494L16.185 18.4827C16.185 18.4827 16.4829 18.7254 16.8924 19.1284C17.3116 19.5217 17.863 20.0536 18.3917 20.6093L19.8629 22.1173L20.5172 22.8172L22.815 20.5194L22.1151 19.8651C21.7045 19.4621 21.1564 18.9269 20.6082 18.3917ZM9.74996 15.1667C6.76321 15.1667 4.33329 12.7367 4.33329 9.75C4.33329 6.76325 6.76321 4.33333 9.74996 4.33333C12.7367 4.33333 15.1666 6.76325 15.1666 9.75C15.1666 12.7367 12.7367 15.1667 9.74996 15.1667Z" fill="black" fill-opacity="0.3"/>
</svg>
