<svg width="18" height="18" viewBox="0 0 18 18" fill="none" xmlns="http://www.w3.org/2000/svg">
<path d="M17.74 14.0623C17.6983 13.8043 17.5365 13.5838 17.2943 13.4528L13.7105 11.3413L13.681 11.3248C13.5308 11.2496 13.3648 11.2111 13.1968 11.2123C12.8965 11.2123 12.6098 11.3261 12.4108 11.5256L11.353 12.5838C11.3078 12.6268 11.1603 12.6891 11.1155 12.6913C11.1033 12.6903 9.88479 12.6026 7.64154 10.3591C5.40229 8.12033 5.30729 6.89808 5.30654 6.89808C5.30779 6.83558 5.36929 6.68858 5.41304 6.64308L6.31504 5.74133C6.63279 5.42283 6.72804 4.89483 6.53954 4.48583L4.54754 0.737581C4.40279 0.439581 4.12154 0.255581 3.80954 0.255581C3.58879 0.255581 3.37579 0.347081 3.20929 0.513331L0.750542 2.96658C0.514792 3.20108 0.311792 3.61108 0.267542 3.94108C0.246042 4.09883 -0.190208 7.86433 4.97229 13.0276C9.35504 17.4098 12.7725 17.7503 13.7163 17.7503C13.8312 17.7518 13.9461 17.7459 14.0603 17.7326C14.3893 17.6886 14.7988 17.4861 15.033 17.2513L17.4898 14.7948C17.6903 14.5933 17.7818 14.3271 17.74 14.0623Z" fill="white"/>
</svg>
